<mxfile host="app.diagrams.net" modified="2024-04-06T06:34:13.001Z" agent="Mozilla/5.0 (Windows NT 10.0; Win64; x64) AppleWebKit/537.36 (KHTML, like Gecko) Chrome/123.0.0.0 Safari/537.36 Edg/123.0.0.0" etag="TauuVgDWJQm6murDVhct" version="24.2.2" type="github">
  <diagram id="R2lEEEUBdFMjLlhIrx00" name="Page-1">
    <mxGraphModel dx="3180" dy="2274" grid="1" gridSize="10" guides="1" tooltips="1" connect="1" arrows="1" fold="1" page="1" pageScale="1" pageWidth="850" pageHeight="1100" math="0" shadow="0" extFonts="Permanent Marker^https://fonts.googleapis.com/css?family=Permanent+Marker">
      <root>
        <mxCell id="0" />
        <mxCell id="1" parent="0" />
        <mxCell id="exuP65Xe-kyWdSPfGrK1-2" value="Id" style="ellipse;whiteSpace=wrap;html=1;fontStyle=4" parent="1" vertex="1">
          <mxGeometry x="-230" y="-250" width="120" height="50" as="geometry" />
        </mxCell>
        <mxCell id="exuP65Xe-kyWdSPfGrK1-3" value="Name" style="ellipse;whiteSpace=wrap;html=1;" parent="1" vertex="1">
          <mxGeometry x="-50" y="-245" width="120" height="40" as="geometry" />
        </mxCell>
        <mxCell id="exuP65Xe-kyWdSPfGrK1-4" value="Address" style="ellipse;whiteSpace=wrap;html=1;" parent="1" vertex="1">
          <mxGeometry x="-100" y="-20" width="120" height="50" as="geometry" />
        </mxCell>
        <mxCell id="exuP65Xe-kyWdSPfGrK1-5" value="Country" style="ellipse;whiteSpace=wrap;html=1;" parent="1" vertex="1">
          <mxGeometry x="-130" y="160" width="120" height="80" as="geometry" />
        </mxCell>
        <mxCell id="exuP65Xe-kyWdSPfGrK1-6" value="Region" style="ellipse;whiteSpace=wrap;html=1;" parent="1" vertex="1">
          <mxGeometry x="-20" y="80" width="120" height="80" as="geometry" />
        </mxCell>
        <mxCell id="exuP65Xe-kyWdSPfGrK1-7" value="City" style="ellipse;whiteSpace=wrap;html=1;" parent="1" vertex="1">
          <mxGeometry x="-230" y="90" width="120" height="80" as="geometry" />
        </mxCell>
        <mxCell id="exuP65Xe-kyWdSPfGrK1-9" value="Lname" style="ellipse;whiteSpace=wrap;html=1;" parent="1" vertex="1">
          <mxGeometry x="70" y="-410" width="120" height="80" as="geometry" />
        </mxCell>
        <mxCell id="exuP65Xe-kyWdSPfGrK1-10" value="Minit" style="ellipse;whiteSpace=wrap;html=1;" parent="1" vertex="1">
          <mxGeometry x="-60" y="-430" width="120" height="80" as="geometry" />
        </mxCell>
        <mxCell id="exuP65Xe-kyWdSPfGrK1-11" value="Fname" style="ellipse;whiteSpace=wrap;html=1;" parent="1" vertex="1">
          <mxGeometry x="-210" y="-410" width="120" height="80" as="geometry" />
        </mxCell>
        <mxCell id="exuP65Xe-kyWdSPfGrK1-16" value="" style="endArrow=none;html=1;rounded=0;entryX=1;entryY=1;entryDx=0;entryDy=0;exitX=0;exitY=0;exitDx=0;exitDy=0;" parent="1" source="exuP65Xe-kyWdSPfGrK1-3" target="exuP65Xe-kyWdSPfGrK1-11" edge="1">
          <mxGeometry width="50" height="50" relative="1" as="geometry">
            <mxPoint x="-40" y="-260" as="sourcePoint" />
            <mxPoint x="10" y="-310" as="targetPoint" />
          </mxGeometry>
        </mxCell>
        <mxCell id="exuP65Xe-kyWdSPfGrK1-19" value="" style="endArrow=none;html=1;rounded=0;exitX=0.5;exitY=0;exitDx=0;exitDy=0;" parent="1" source="exuP65Xe-kyWdSPfGrK1-3" target="exuP65Xe-kyWdSPfGrK1-9" edge="1">
          <mxGeometry width="50" height="50" relative="1" as="geometry">
            <mxPoint x="-40" y="-260" as="sourcePoint" />
            <mxPoint y="-340" as="targetPoint" />
          </mxGeometry>
        </mxCell>
        <mxCell id="exuP65Xe-kyWdSPfGrK1-20" value="" style="endArrow=none;html=1;rounded=0;entryX=0.5;entryY=1;entryDx=0;entryDy=0;exitX=0.5;exitY=0;exitDx=0;exitDy=0;" parent="1" source="exuP65Xe-kyWdSPfGrK1-3" target="exuP65Xe-kyWdSPfGrK1-10" edge="1">
          <mxGeometry width="50" height="50" relative="1" as="geometry">
            <mxPoint x="-40" y="-260" as="sourcePoint" />
            <mxPoint x="10" y="-310" as="targetPoint" />
          </mxGeometry>
        </mxCell>
        <mxCell id="exuP65Xe-kyWdSPfGrK1-22" value="" style="endArrow=none;html=1;rounded=0;entryX=0.5;entryY=0;entryDx=0;entryDy=0;exitX=0.5;exitY=1;exitDx=0;exitDy=0;" parent="1" source="exuP65Xe-kyWdSPfGrK1-4" target="exuP65Xe-kyWdSPfGrK1-5" edge="1">
          <mxGeometry width="50" height="50" relative="1" as="geometry">
            <mxPoint x="50" y="-140" as="sourcePoint" />
            <mxPoint x="100" y="-190" as="targetPoint" />
          </mxGeometry>
        </mxCell>
        <mxCell id="exuP65Xe-kyWdSPfGrK1-23" value="" style="endArrow=none;html=1;rounded=0;entryX=0.5;entryY=0;entryDx=0;entryDy=0;exitX=1;exitY=1;exitDx=0;exitDy=0;" parent="1" source="exuP65Xe-kyWdSPfGrK1-4" target="exuP65Xe-kyWdSPfGrK1-6" edge="1">
          <mxGeometry width="50" height="50" relative="1" as="geometry">
            <mxPoint x="50" y="-140" as="sourcePoint" />
            <mxPoint x="100" y="-190" as="targetPoint" />
            <Array as="points" />
          </mxGeometry>
        </mxCell>
        <mxCell id="exuP65Xe-kyWdSPfGrK1-24" value="Trainee" style="rounded=0;whiteSpace=wrap;html=1;" parent="1" vertex="1">
          <mxGeometry x="-170" y="-140" width="240" height="60" as="geometry" />
        </mxCell>
        <mxCell id="exuP65Xe-kyWdSPfGrK1-25" value="" style="endArrow=none;html=1;rounded=0;entryX=0.5;entryY=1;entryDx=0;entryDy=0;exitX=0.5;exitY=0;exitDx=0;exitDy=0;" parent="1" source="exuP65Xe-kyWdSPfGrK1-4" target="exuP65Xe-kyWdSPfGrK1-24" edge="1">
          <mxGeometry width="50" height="50" relative="1" as="geometry">
            <mxPoint x="300" y="-40" as="sourcePoint" />
            <mxPoint x="350" y="-90" as="targetPoint" />
          </mxGeometry>
        </mxCell>
        <mxCell id="exuP65Xe-kyWdSPfGrK1-26" value="" style="endArrow=none;html=1;rounded=0;entryX=0.204;entryY=0.89;entryDx=0;entryDy=0;entryPerimeter=0;" parent="1" source="exuP65Xe-kyWdSPfGrK1-7" target="exuP65Xe-kyWdSPfGrK1-4" edge="1">
          <mxGeometry width="50" height="50" relative="1" as="geometry">
            <mxPoint x="-20" y="60" as="sourcePoint" />
            <mxPoint x="30" y="10" as="targetPoint" />
          </mxGeometry>
        </mxCell>
        <mxCell id="exuP65Xe-kyWdSPfGrK1-27" value="" style="endArrow=none;html=1;rounded=0;entryX=0.5;entryY=1;entryDx=0;entryDy=0;exitX=0.75;exitY=0;exitDx=0;exitDy=0;" parent="1" source="exuP65Xe-kyWdSPfGrK1-24" target="exuP65Xe-kyWdSPfGrK1-3" edge="1">
          <mxGeometry width="50" height="50" relative="1" as="geometry">
            <mxPoint x="90" y="-70" as="sourcePoint" />
            <mxPoint x="140" y="-120" as="targetPoint" />
          </mxGeometry>
        </mxCell>
        <mxCell id="exuP65Xe-kyWdSPfGrK1-28" value="" style="endArrow=none;html=1;rounded=0;entryX=0.5;entryY=1;entryDx=0;entryDy=0;exitX=0;exitY=0;exitDx=0;exitDy=0;" parent="1" source="exuP65Xe-kyWdSPfGrK1-24" target="exuP65Xe-kyWdSPfGrK1-2" edge="1">
          <mxGeometry width="50" height="50" relative="1" as="geometry">
            <mxPoint x="90" y="-70" as="sourcePoint" />
            <mxPoint x="140" y="-120" as="targetPoint" />
            <Array as="points">
              <mxPoint x="-170" y="-170" />
            </Array>
          </mxGeometry>
        </mxCell>
        <mxCell id="exuP65Xe-kyWdSPfGrK1-29" value="Birthdate" style="ellipse;whiteSpace=wrap;html=1;" parent="1" vertex="1">
          <mxGeometry x="120" y="-30" width="120" height="80" as="geometry" />
        </mxCell>
        <mxCell id="exuP65Xe-kyWdSPfGrK1-30" value="Email" style="ellipse;whiteSpace=wrap;html=1;" parent="1" vertex="1">
          <mxGeometry x="160" y="-140" width="120" height="80" as="geometry" />
        </mxCell>
        <mxCell id="exuP65Xe-kyWdSPfGrK1-31" value="Phone" style="ellipse;whiteSpace=wrap;html=1;" parent="1" vertex="1">
          <mxGeometry x="130" y="-245" width="120" height="80" as="geometry" />
        </mxCell>
        <mxCell id="exuP65Xe-kyWdSPfGrK1-34" value="Phone" style="ellipse;whiteSpace=wrap;html=1;" parent="1" vertex="1">
          <mxGeometry x="135" y="-240" width="110" height="70" as="geometry" />
        </mxCell>
        <mxCell id="exuP65Xe-kyWdSPfGrK1-35" value="" style="endArrow=none;html=1;rounded=0;exitX=1;exitY=0;exitDx=0;exitDy=0;entryX=0;entryY=0.5;entryDx=0;entryDy=0;" parent="1" source="exuP65Xe-kyWdSPfGrK1-24" target="exuP65Xe-kyWdSPfGrK1-31" edge="1">
          <mxGeometry width="50" height="50" relative="1" as="geometry">
            <mxPoint x="90" y="-70" as="sourcePoint" />
            <mxPoint x="150" y="-160" as="targetPoint" />
          </mxGeometry>
        </mxCell>
        <mxCell id="exuP65Xe-kyWdSPfGrK1-36" value="" style="endArrow=none;html=1;rounded=0;exitX=1;exitY=0.5;exitDx=0;exitDy=0;entryX=0;entryY=0.5;entryDx=0;entryDy=0;" parent="1" source="exuP65Xe-kyWdSPfGrK1-24" target="exuP65Xe-kyWdSPfGrK1-30" edge="1">
          <mxGeometry width="50" height="50" relative="1" as="geometry">
            <mxPoint x="90" y="-70" as="sourcePoint" />
            <mxPoint x="140" y="-120" as="targetPoint" />
          </mxGeometry>
        </mxCell>
        <mxCell id="exuP65Xe-kyWdSPfGrK1-39" value="" style="endArrow=none;html=1;rounded=0;exitX=1;exitY=1;exitDx=0;exitDy=0;entryX=0;entryY=0;entryDx=0;entryDy=0;" parent="1" source="exuP65Xe-kyWdSPfGrK1-24" target="exuP65Xe-kyWdSPfGrK1-29" edge="1">
          <mxGeometry width="50" height="50" relative="1" as="geometry">
            <mxPoint x="90" y="-70" as="sourcePoint" />
            <mxPoint x="140" y="-120" as="targetPoint" />
          </mxGeometry>
        </mxCell>
        <mxCell id="exuP65Xe-kyWdSPfGrK1-40" value="Nationality" style="ellipse;whiteSpace=wrap;html=1;" parent="1" vertex="1">
          <mxGeometry x="290" y="80" width="120" height="80" as="geometry" />
        </mxCell>
        <mxCell id="exuP65Xe-kyWdSPfGrK1-43" value="Dependent" style="rounded=0;whiteSpace=wrap;html=1;" parent="1" vertex="1">
          <mxGeometry x="-390" y="430" width="260" height="60" as="geometry" />
        </mxCell>
        <mxCell id="exuP65Xe-kyWdSPfGrK1-45" value="Employee" style="rounded=0;whiteSpace=wrap;html=1;" parent="1" vertex="1">
          <mxGeometry x="605" y="-100" width="90" height="30" as="geometry" />
        </mxCell>
        <mxCell id="exuP65Xe-kyWdSPfGrK1-46" value="Id" style="ellipse;whiteSpace=wrap;html=1;" parent="1" vertex="1">
          <mxGeometry x="510" y="-60" width="60" height="30" as="geometry" />
        </mxCell>
        <mxCell id="exuP65Xe-kyWdSPfGrK1-47" value="Salary" style="ellipse;whiteSpace=wrap;html=1;" parent="1" vertex="1">
          <mxGeometry x="550" width="100" height="50" as="geometry" />
        </mxCell>
        <mxCell id="exuP65Xe-kyWdSPfGrK1-48" value="Sex" style="ellipse;whiteSpace=wrap;html=1;" parent="1" vertex="1">
          <mxGeometry x="680" width="90" height="50" as="geometry" />
        </mxCell>
        <mxCell id="exuP65Xe-kyWdSPfGrK1-50" value="" style="endArrow=none;html=1;rounded=0;entryX=0;entryY=1;entryDx=0;entryDy=0;exitX=1;exitY=0;exitDx=0;exitDy=0;" parent="1" source="exuP65Xe-kyWdSPfGrK1-46" target="exuP65Xe-kyWdSPfGrK1-45" edge="1">
          <mxGeometry width="50" height="50" relative="1" as="geometry">
            <mxPoint x="440" y="-40" as="sourcePoint" />
            <mxPoint x="490" y="-90" as="targetPoint" />
          </mxGeometry>
        </mxCell>
        <mxCell id="exuP65Xe-kyWdSPfGrK1-51" value="" style="endArrow=none;html=1;rounded=0;entryX=0.25;entryY=1;entryDx=0;entryDy=0;exitX=0.5;exitY=0;exitDx=0;exitDy=0;" parent="1" source="exuP65Xe-kyWdSPfGrK1-47" target="exuP65Xe-kyWdSPfGrK1-45" edge="1">
          <mxGeometry width="50" height="50" relative="1" as="geometry">
            <mxPoint x="440" y="-40" as="sourcePoint" />
            <mxPoint x="490" y="-90" as="targetPoint" />
          </mxGeometry>
        </mxCell>
        <mxCell id="exuP65Xe-kyWdSPfGrK1-52" value="" style="endArrow=none;html=1;rounded=0;entryX=0.75;entryY=1;entryDx=0;entryDy=0;exitX=0.5;exitY=0;exitDx=0;exitDy=0;" parent="1" source="exuP65Xe-kyWdSPfGrK1-48" target="exuP65Xe-kyWdSPfGrK1-45" edge="1">
          <mxGeometry width="50" height="50" relative="1" as="geometry">
            <mxPoint x="440" y="-40" as="sourcePoint" />
            <mxPoint x="490" y="-90" as="targetPoint" />
          </mxGeometry>
        </mxCell>
        <mxCell id="exuP65Xe-kyWdSPfGrK1-53" value="Address" style="ellipse;whiteSpace=wrap;html=1;" parent="1" vertex="1">
          <mxGeometry x="770" y="-60" width="90" height="60" as="geometry" />
        </mxCell>
        <mxCell id="exuP65Xe-kyWdSPfGrK1-54" value="" style="endArrow=none;html=1;rounded=0;entryX=1;entryY=1;entryDx=0;entryDy=0;exitX=0;exitY=0.5;exitDx=0;exitDy=0;" parent="1" source="exuP65Xe-kyWdSPfGrK1-53" target="exuP65Xe-kyWdSPfGrK1-45" edge="1">
          <mxGeometry width="50" height="50" relative="1" as="geometry">
            <mxPoint x="440" y="-40" as="sourcePoint" />
            <mxPoint x="490" y="-90" as="targetPoint" />
          </mxGeometry>
        </mxCell>
        <mxCell id="exuP65Xe-kyWdSPfGrK1-55" value="" style="endArrow=none;html=1;rounded=0;exitX=0.5;exitY=0;exitDx=0;exitDy=0;" parent="1" source="exuP65Xe-kyWdSPfGrK1-43" edge="1">
          <mxGeometry width="50" height="50" relative="1" as="geometry">
            <mxPoint x="-190" y="410" as="sourcePoint" />
            <mxPoint x="-170" y="340" as="targetPoint" />
          </mxGeometry>
        </mxCell>
        <mxCell id="k2jzktVWBkni9SinhkaB-3" value="name" style="ellipse;whiteSpace=wrap;html=1;" parent="1" vertex="1">
          <mxGeometry x="620" y="50" width="100" height="60" as="geometry" />
        </mxCell>
        <mxCell id="k2jzktVWBkni9SinhkaB-4" value="" style="endArrow=none;html=1;rounded=0;entryX=0.5;entryY=1;entryDx=0;entryDy=0;exitX=0.5;exitY=0;exitDx=0;exitDy=0;" parent="1" source="k2jzktVWBkni9SinhkaB-3" target="exuP65Xe-kyWdSPfGrK1-45" edge="1">
          <mxGeometry width="50" height="50" relative="1" as="geometry">
            <mxPoint x="640" y="30" as="sourcePoint" />
            <mxPoint x="690" y="-20" as="targetPoint" />
          </mxGeometry>
        </mxCell>
        <mxCell id="k2jzktVWBkni9SinhkaB-10" value="Lname" style="ellipse;whiteSpace=wrap;html=1;" parent="1" vertex="1">
          <mxGeometry x="705" y="110" width="80" height="50" as="geometry" />
        </mxCell>
        <mxCell id="k2jzktVWBkni9SinhkaB-11" value="Minit" style="ellipse;whiteSpace=wrap;html=1;" parent="1" vertex="1">
          <mxGeometry x="630" y="160" width="80" height="40" as="geometry" />
        </mxCell>
        <mxCell id="k2jzktVWBkni9SinhkaB-12" value="Fname" style="ellipse;whiteSpace=wrap;html=1;" parent="1" vertex="1">
          <mxGeometry x="565" y="110" width="75" height="50" as="geometry" />
        </mxCell>
        <mxCell id="k2jzktVWBkni9SinhkaB-17" value="" style="endArrow=none;html=1;rounded=0;exitX=1;exitY=0;exitDx=0;exitDy=0;entryX=0;entryY=1;entryDx=0;entryDy=0;" parent="1" source="k2jzktVWBkni9SinhkaB-12" target="k2jzktVWBkni9SinhkaB-3" edge="1">
          <mxGeometry width="50" height="50" relative="1" as="geometry">
            <mxPoint x="610" y="130" as="sourcePoint" />
            <mxPoint x="660" y="80" as="targetPoint" />
          </mxGeometry>
        </mxCell>
        <mxCell id="k2jzktVWBkni9SinhkaB-18" value="" style="endArrow=none;html=1;rounded=0;entryX=0.5;entryY=1;entryDx=0;entryDy=0;exitX=0.5;exitY=0;exitDx=0;exitDy=0;" parent="1" source="k2jzktVWBkni9SinhkaB-11" target="k2jzktVWBkni9SinhkaB-3" edge="1">
          <mxGeometry width="50" height="50" relative="1" as="geometry">
            <mxPoint x="640" y="70" as="sourcePoint" />
            <mxPoint x="690" y="20" as="targetPoint" />
          </mxGeometry>
        </mxCell>
        <mxCell id="k2jzktVWBkni9SinhkaB-19" value="" style="endArrow=none;html=1;rounded=0;entryX=0;entryY=0;entryDx=0;entryDy=0;exitX=1;exitY=1;exitDx=0;exitDy=0;" parent="1" source="k2jzktVWBkni9SinhkaB-3" target="k2jzktVWBkni9SinhkaB-10" edge="1">
          <mxGeometry width="50" height="50" relative="1" as="geometry">
            <mxPoint x="640" y="70" as="sourcePoint" />
            <mxPoint x="690" y="20" as="targetPoint" />
          </mxGeometry>
        </mxCell>
        <mxCell id="k2jzktVWBkni9SinhkaB-21" value="ticket_opend_date" style="ellipse;whiteSpace=wrap;html=1;" parent="1" vertex="1">
          <mxGeometry x="975" y="-70" width="120" height="50" as="geometry" />
        </mxCell>
        <mxCell id="k2jzktVWBkni9SinhkaB-22" value="ticket_id" style="ellipse;whiteSpace=wrap;html=1;" parent="1" vertex="1">
          <mxGeometry x="1092.5" y="-30" width="90" height="50" as="geometry" />
        </mxCell>
        <mxCell id="k2jzktVWBkni9SinhkaB-23" value="ticket_closed_date" style="ellipse;whiteSpace=wrap;html=1;" parent="1" vertex="1">
          <mxGeometry x="1170" y="-70" width="120" height="50" as="geometry" />
        </mxCell>
        <mxCell id="k2jzktVWBkni9SinhkaB-25" value="Trainer SUB CLASS FROM EMPLOYEE" style="rounded=0;whiteSpace=wrap;html=1;" parent="1" vertex="1">
          <mxGeometry x="627.5" y="440" width="80" height="30" as="geometry" />
        </mxCell>
        <mxCell id="k2jzktVWBkni9SinhkaB-26" value="Trainee_progress" style="ellipse;whiteSpace=wrap;html=1;" parent="1" vertex="1">
          <mxGeometry x="577.5" y="320" width="110" height="50" as="geometry" />
        </mxCell>
        <mxCell id="k2jzktVWBkni9SinhkaB-28" value="" style="endArrow=none;html=1;rounded=0;exitX=1;exitY=0;exitDx=0;exitDy=0;entryX=0;entryY=0.5;entryDx=0;entryDy=0;" parent="1" source="k2jzktVWBkni9SinhkaB-21" edge="1">
          <mxGeometry width="50" height="50" relative="1" as="geometry">
            <mxPoint x="1115" y="-190" as="sourcePoint" />
            <mxPoint x="1097.5" y="-80" as="targetPoint" />
          </mxGeometry>
        </mxCell>
        <mxCell id="k2jzktVWBkni9SinhkaB-29" value="" style="endArrow=none;html=1;rounded=0;entryX=0;entryY=0;entryDx=0;entryDy=0;exitX=1;exitY=0.5;exitDx=0;exitDy=0;" parent="1" target="k2jzktVWBkni9SinhkaB-23" edge="1">
          <mxGeometry width="50" height="50" relative="1" as="geometry">
            <mxPoint x="1177.5" y="-80" as="sourcePoint" />
            <mxPoint x="1165" y="-240" as="targetPoint" />
          </mxGeometry>
        </mxCell>
        <mxCell id="k2jzktVWBkni9SinhkaB-30" value="" style="endArrow=none;html=1;rounded=0;entryX=0.5;entryY=0;entryDx=0;entryDy=0;exitX=0.5;exitY=1;exitDx=0;exitDy=0;" parent="1" target="k2jzktVWBkni9SinhkaB-22" edge="1">
          <mxGeometry width="50" height="50" relative="1" as="geometry">
            <mxPoint x="1137.5" y="-60" as="sourcePoint" />
            <mxPoint x="1165" y="-240" as="targetPoint" />
          </mxGeometry>
        </mxCell>
        <mxCell id="k2jzktVWBkni9SinhkaB-33" value="Email" style="ellipse;whiteSpace=wrap;html=1;" parent="1" vertex="1">
          <mxGeometry x="1547.5" y="-20" width="43.75" height="25" as="geometry" />
        </mxCell>
        <mxCell id="k2jzktVWBkni9SinhkaB-35" value="Phone" style="ellipse;whiteSpace=wrap;html=1;" parent="1" vertex="1">
          <mxGeometry x="1400" y="-20" width="45" height="30" as="geometry" />
        </mxCell>
        <mxCell id="k2jzktVWBkni9SinhkaB-36" value="name" style="ellipse;whiteSpace=wrap;html=1;" parent="1" vertex="1">
          <mxGeometry x="1415" y="20" width="55" height="30" as="geometry" />
        </mxCell>
        <mxCell id="k2jzktVWBkni9SinhkaB-43" value="Id" style="ellipse;whiteSpace=wrap;html=1;" parent="1" vertex="1">
          <mxGeometry x="1497.5" y="20" width="50" height="30" as="geometry" />
        </mxCell>
        <mxCell id="k2jzktVWBkni9SinhkaB-44" value="" style="endArrow=none;html=1;rounded=0;entryX=0.5;entryY=0;entryDx=0;entryDy=0;exitX=0;exitY=0.5;exitDx=0;exitDy=0;" parent="1" target="k2jzktVWBkni9SinhkaB-35" edge="1">
          <mxGeometry width="50" height="50" relative="1" as="geometry">
            <mxPoint x="1450" y="-50" as="sourcePoint" />
            <mxPoint x="1620" y="-50" as="targetPoint" />
          </mxGeometry>
        </mxCell>
        <mxCell id="k2jzktVWBkni9SinhkaB-45" value="" style="endArrow=none;html=1;rounded=0;entryX=1;entryY=0.5;entryDx=0;entryDy=0;exitX=0.5;exitY=0;exitDx=0;exitDy=0;" parent="1" edge="1">
          <mxGeometry width="50" height="50" relative="1" as="geometry">
            <mxPoint x="1552.5050000000006" y="-20" as="sourcePoint" />
            <mxPoint x="1520" y="-50" as="targetPoint" />
          </mxGeometry>
        </mxCell>
        <mxCell id="k2jzktVWBkni9SinhkaB-46" value="" style="endArrow=none;html=1;rounded=0;entryX=0;entryY=1;entryDx=0;entryDy=0;exitX=0.5;exitY=0;exitDx=0;exitDy=0;" parent="1" source="k2jzktVWBkni9SinhkaB-36" edge="1">
          <mxGeometry width="50" height="50" relative="1" as="geometry">
            <mxPoint x="1570" as="sourcePoint" />
            <mxPoint x="1460.4500381434286" y="-35.74518343812042" as="targetPoint" />
          </mxGeometry>
        </mxCell>
        <mxCell id="k2jzktVWBkni9SinhkaB-47" value="" style="endArrow=none;html=1;rounded=0;entryX=0.5;entryY=0;entryDx=0;entryDy=0;exitX=1;exitY=1;exitDx=0;exitDy=0;" parent="1" target="k2jzktVWBkni9SinhkaB-43" edge="1">
          <mxGeometry width="50" height="50" relative="1" as="geometry">
            <mxPoint x="1509.549961856571" y="-35.745183438119966" as="sourcePoint" />
            <mxPoint x="1620" y="-50" as="targetPoint" />
          </mxGeometry>
        </mxCell>
        <mxCell id="k2jzktVWBkni9SinhkaB-49" value="Trainee_contact" style="ellipse;whiteSpace=wrap;html=1;" parent="1" vertex="1">
          <mxGeometry x="677.5" y="280" width="92.5" height="50" as="geometry" />
        </mxCell>
        <mxCell id="k2jzktVWBkni9SinhkaB-51" value="" style="endArrow=none;html=1;rounded=0;entryX=0.5;entryY=1;entryDx=0;entryDy=0;exitX=0.25;exitY=0;exitDx=0;exitDy=0;" parent="1" source="k2jzktVWBkni9SinhkaB-25" target="k2jzktVWBkni9SinhkaB-26" edge="1">
          <mxGeometry width="50" height="50" relative="1" as="geometry">
            <mxPoint x="717.5" y="470" as="sourcePoint" />
            <mxPoint x="767.5" y="420" as="targetPoint" />
          </mxGeometry>
        </mxCell>
        <mxCell id="k2jzktVWBkni9SinhkaB-52" value="" style="endArrow=none;html=1;rounded=0;entryX=0.5;entryY=1;entryDx=0;entryDy=0;exitX=0.75;exitY=0;exitDx=0;exitDy=0;" parent="1" source="k2jzktVWBkni9SinhkaB-25" target="k2jzktVWBkni9SinhkaB-49" edge="1">
          <mxGeometry width="50" height="50" relative="1" as="geometry">
            <mxPoint x="717.5" y="470" as="sourcePoint" />
            <mxPoint x="767.5" y="420" as="targetPoint" />
          </mxGeometry>
        </mxCell>
        <mxCell id="u9gGwUAEqnFLZJLe6ffc-2" value="COSTUMER" style="rounded=0;whiteSpace=wrap;html=1;" vertex="1" parent="1">
          <mxGeometry x="1427.5" y="-110" width="120" height="60" as="geometry" />
        </mxCell>
        <mxCell id="u9gGwUAEqnFLZJLe6ffc-3" value="TICKET" style="rounded=0;whiteSpace=wrap;html=1;" vertex="1" parent="1">
          <mxGeometry x="1077.5" y="-130" width="120" height="60" as="geometry" />
        </mxCell>
      </root>
    </mxGraphModel>
  </diagram>
</mxfile>
